<svg width="32" height="32" viewBox="0 0 32 32" fill="current" xmlns="http://www.w3.org/2000/svg">
<path fill-rule="evenodd" clip-rule="evenodd" d="M6.66667 4.99984C6.66667 3.71117 7.71133 2.6665 9 2.6665H23C24.2887 2.6665 25.3333 3.71117 25.3333 4.99984V28.3332C25.3333 28.7176 25.113 29.068 24.7665 29.2345C24.4201 29.401 24.0088 29.3542 23.7086 29.114L16 22.9471L8.29136 29.114C7.99119 29.3542 7.57994 29.401 7.23348 29.2345C6.88701 29.068 6.66667 28.7176 6.66667 28.3332V4.99984ZM9 4.6665C8.8159 4.6665 8.66667 4.81574 8.66667 4.99984V26.2525L15.3753 20.8856C15.7405 20.5935 16.2595 20.5935 16.6247 20.8856L23.3333 26.2525V4.99984C23.3333 4.81574 23.1841 4.6665 23 4.6665H9Z" fill="current"/>
</svg>
