<svg width="32" height="32" viewBox="0 0 32 32" fill="none" xmlns="http://www.w3.org/2000/svg">
<path d="M15.546 4.98442C15.7247 4.59699 16.2753 4.59699 16.454 4.98442L19.5505 11.6977C19.6234 11.8556 19.773 11.9643 19.9457 11.9848L27.2873 12.8552C27.711 12.9055 27.8811 13.4292 27.5679 13.7189L22.1401 18.7383C22.0124 18.8564 21.9552 19.0323 21.9891 19.2029L23.4299 26.4541C23.5131 26.8726 23.0676 27.1962 22.6953 26.9878L16.2442 23.3768C16.0925 23.2919 15.9075 23.2919 15.7558 23.3768L9.30468 26.9878C8.93237 27.1962 8.48689 26.8726 8.57005 26.4541L10.0109 19.2029C10.0447 19.0323 9.98759 18.8564 9.85992 18.7383L4.43211 13.7189C4.11886 13.4292 4.28902 12.9055 4.71272 12.8552L12.0543 11.9848C12.227 11.9643 12.3766 11.8556 12.4494 11.6977L15.546 4.98442Z" stroke-width="2" stroke-linecap="round" stroke-linejoin="round"/>
</svg>
