<svg width="50" height="32" viewBox="0 0 50 32" fill="none" xmlns="http://www.w3.org/2000/svg">
<path fill-rule="evenodd" clip-rule="evenodd" d="M32.0533 14.4873C32.0493 14.5309 32.045 14.5744 32.0406 14.6178V14.4873H31.6341C31.6142 14.4873 31.5943 14.4868 31.5746 14.486H29.6322L29.6363 14.4499C29.68 14.0545 29.7024 13.6527 29.7024 13.2457C29.7024 7.26038 24.8504 2.40831 18.865 2.40831C13.3386 2.40831 8.77834 6.54486 8.11154 11.8906C8.77249 11.7555 9.45683 11.6845 10.1578 11.6845L19.7431 11.6845C25.3531 11.6845 29.9008 16.2322 29.9008 21.8422C29.9008 22.2516 29.8766 22.6562 29.8292 23.0543C29.7377 23.8228 29.0405 24.3716 28.2719 24.2801C27.5034 24.1886 26.9546 23.4914 27.0461 22.7229C27.0804 22.4348 27.0981 22.1409 27.0981 21.8422C27.0981 17.7802 23.8051 14.4872 19.7431 14.4872L10.1578 14.4872C6.0957 14.4872 2.80276 17.7802 2.80276 21.8422C2.80276 25.9043 6.0957 29.1972 10.1577 29.1972L18.0852 29.1972C18.8591 29.1972 19.4865 29.8246 19.4865 30.5986C19.4865 31.3725 18.8591 32 18.0852 32H10.1578C4.54778 32 0 27.4522 0 21.8422C-2.83793e-06 17.8597 2.29183 14.4126 5.62855 12.7476C5.89046 5.663 11.7164 0 18.8651 0C25.6523 0 31.2472 5.10485 32.0197 11.6845L39.5616 11.6845C45.1716 11.6845 49.7194 16.2323 49.7194 21.8423C49.7194 27.4522 45.1716 32 39.5616 32H29.9763C24.3663 32 19.8186 27.4522 19.8186 21.8423C19.8186 21.4326 19.8429 21.0281 19.8903 20.6301C19.9818 19.8616 20.679 19.3128 21.4475 19.4043C22.2161 19.4958 22.7649 20.193 22.6734 20.9616C22.639 21.2498 22.6213 21.5437 22.6213 21.8423C22.6213 25.9043 25.9143 29.1972 29.9763 29.1972H39.5616C43.6237 29.1972 46.9166 25.9043 46.9166 21.8423C46.9166 17.7802 43.6237 14.4873 39.5616 14.4873L32.0533 14.4873Z" fill="url(#paint0_linear_154_3170)"/>
<defs>
<linearGradient id="paint0_linear_154_3170" x1="6.42216" y1="1.20415" x2="45.5902" y2="11.6302" gradientUnits="userSpaceOnUse">
<stop stop-color="#AAC4F9"/>
<stop offset="1" stop-color="#3866DC"/>
</linearGradient>
</defs>
</svg>
