<svg width="169" height="32" viewBox="0 0 169 32" fill="none" xmlns="http://www.w3.org/2000/svg">
<path d="M59.7115 26V9.2H63.5995V22.832H72.0235V26H59.7115ZM73.9553 26V13.088H77.6993V26H73.9553ZM75.8273 11.288C75.1393 11.288 74.5793 11.088 74.1473 10.688C73.7153 10.288 73.4993 9.792 73.4993 9.2C73.4993 8.608 73.7153 8.112 74.1473 7.712C74.5793 7.312 75.1393 7.112 75.8273 7.112C76.5153 7.112 77.0753 7.304 77.5073 7.688C77.9393 8.056 78.1553 8.536 78.1553 9.128C78.1553 9.752 77.9393 10.272 77.5073 10.688C77.0913 11.088 76.5313 11.288 75.8273 11.288ZM89.022 12.896C90.046 12.896 90.958 13.104 91.758 13.52C92.574 13.92 93.214 14.544 93.678 15.392C94.142 16.224 94.374 17.296 94.374 18.608V26H90.63V19.184C90.63 18.144 90.398 17.376 89.934 16.88C89.486 16.384 88.846 16.136 88.014 16.136C87.422 16.136 86.886 16.264 86.406 16.52C85.942 16.76 85.574 17.136 85.302 17.648C85.046 18.16 84.918 18.816 84.918 19.616V26H81.174V13.088H84.75V16.664L84.078 15.584C84.542 14.72 85.206 14.056 86.07 13.592C86.934 13.128 87.918 12.896 89.022 12.896ZM100.864 23.36L100.96 18.8L106.984 13.088H111.448L105.664 18.968L103.72 20.552L100.864 23.36ZM97.7678 26V8.192H101.512V26H97.7678ZM107.392 26L103.024 20.576L105.376 17.672L111.928 26H107.392ZM113.612 26V8.192H117.356V26H113.612ZM126.974 26.192C125.598 26.192 124.374 25.904 123.302 25.328C122.246 24.752 121.406 23.968 120.782 22.976C120.174 21.968 119.87 20.824 119.87 19.544C119.87 18.248 120.174 17.104 120.782 16.112C121.406 15.104 122.246 14.32 123.302 13.76C124.374 13.184 125.598 12.896 126.974 12.896C128.334 12.896 129.55 13.184 130.622 13.76C131.694 14.32 132.534 15.096 133.142 16.088C133.75 17.08 134.054 18.232 134.054 19.544C134.054 20.824 133.75 21.968 133.142 22.976C132.534 23.968 131.694 24.752 130.622 25.328C129.55 25.904 128.334 26.192 126.974 26.192ZM126.974 23.12C127.598 23.12 128.158 22.976 128.654 22.688C129.15 22.4 129.542 21.992 129.83 21.464C130.118 20.92 130.262 20.28 130.262 19.544C130.262 18.792 130.118 18.152 129.83 17.624C129.542 17.096 129.15 16.688 128.654 16.4C128.158 16.112 127.598 15.968 126.974 15.968C126.35 15.968 125.79 16.112 125.294 16.4C124.798 16.688 124.398 17.096 124.094 17.624C123.806 18.152 123.662 18.792 123.662 19.544C123.662 20.28 123.806 20.92 124.094 21.464C124.398 21.992 124.798 22.4 125.294 22.688C125.79 22.976 126.35 23.12 126.974 23.12ZM142.005 26.192C140.933 26.192 139.973 25.984 139.125 25.568C138.293 25.152 137.645 24.52 137.181 23.672C136.717 22.808 136.485 21.712 136.485 20.384V13.088H140.229V19.832C140.229 20.904 140.453 21.696 140.901 22.208C141.365 22.704 142.013 22.952 142.845 22.952C143.421 22.952 143.933 22.832 144.381 22.592C144.829 22.336 145.181 21.952 145.437 21.44C145.693 20.912 145.821 20.256 145.821 19.472V13.088H149.565V26H146.013V22.448L146.661 23.48C146.229 24.376 145.589 25.056 144.741 25.52C143.909 25.968 142.997 26.192 142.005 26.192ZM158.577 26.192C157.361 26.192 156.265 25.92 155.289 25.376C154.313 24.816 153.537 24.04 152.961 23.048C152.401 22.056 152.121 20.888 152.121 19.544C152.121 18.184 152.401 17.008 152.961 16.016C153.537 15.024 154.313 14.256 155.289 13.712C156.265 13.168 157.361 12.896 158.577 12.896C159.665 12.896 160.617 13.136 161.433 13.616C162.249 14.096 162.881 14.824 163.329 15.8C163.777 16.776 164.001 18.024 164.001 19.544C164.001 21.048 163.785 22.296 163.353 23.288C162.921 24.264 162.297 24.992 161.481 25.472C160.681 25.952 159.713 26.192 158.577 26.192ZM159.225 23.12C159.833 23.12 160.385 22.976 160.881 22.688C161.377 22.4 161.769 21.992 162.057 21.464C162.361 20.92 162.513 20.28 162.513 19.544C162.513 18.792 162.361 18.152 162.057 17.624C161.769 17.096 161.377 16.688 160.881 16.4C160.385 16.112 159.833 15.968 159.225 15.968C158.601 15.968 158.041 16.112 157.545 16.4C157.049 16.688 156.649 17.096 156.345 17.624C156.057 18.152 155.913 18.792 155.913 19.544C155.913 20.28 156.057 20.92 156.345 21.464C156.649 21.992 157.049 22.4 157.545 22.688C158.041 22.976 158.601 23.12 159.225 23.12ZM162.609 26V23.36L162.681 19.52L162.441 15.704V8.192H166.185V26H162.609Z" fill="#202329"/>
<path fill-rule="evenodd" clip-rule="evenodd" d="M32.0533 14.4873C32.0493 14.5309 32.045 14.5744 32.0406 14.6178V14.4873H31.6341C31.6142 14.4873 31.5943 14.4868 31.5746 14.486H29.6322L29.6363 14.4499C29.68 14.0545 29.7024 13.6527 29.7024 13.2457C29.7024 7.26038 24.8504 2.40831 18.865 2.40831C13.3386 2.40831 8.77834 6.54486 8.11154 11.8906C8.77249 11.7555 9.45683 11.6845 10.1578 11.6845L19.7431 11.6845C25.3531 11.6845 29.9008 16.2322 29.9008 21.8422C29.9008 22.2516 29.8766 22.6562 29.8292 23.0543C29.7377 23.8228 29.0405 24.3716 28.2719 24.2801C27.5034 24.1886 26.9546 23.4914 27.0461 22.7229C27.0804 22.4348 27.0981 22.1409 27.0981 21.8422C27.0981 17.7802 23.8051 14.4872 19.7431 14.4872L10.1578 14.4872C6.0957 14.4872 2.80276 17.7802 2.80276 21.8422C2.80276 25.9043 6.0957 29.1972 10.1577 29.1972L18.0852 29.1972C18.8591 29.1972 19.4865 29.8246 19.4865 30.5986C19.4865 31.3725 18.8591 32 18.0852 32H10.1578C4.54778 32 0 27.4522 0 21.8422C-2.83793e-06 17.8597 2.29183 14.4126 5.62855 12.7476C5.89046 5.663 11.7164 0 18.8651 0C25.6523 0 31.2472 5.10485 32.0197 11.6845L39.5616 11.6845C45.1716 11.6845 49.7194 16.2323 49.7194 21.8423C49.7194 27.4522 45.1716 32 39.5616 32H29.9763C24.3663 32 19.8186 27.4522 19.8186 21.8423C19.8186 21.4326 19.8429 21.0281 19.8903 20.6301C19.9818 19.8616 20.679 19.3128 21.4475 19.4043C22.2161 19.4958 22.7649 20.193 22.6734 20.9616C22.639 21.2498 22.6213 21.5437 22.6213 21.8423C22.6213 25.9043 25.9143 29.1972 29.9763 29.1972H39.5616C43.6237 29.1972 46.9166 25.9043 46.9166 21.8423C46.9166 17.7802 43.6237 14.4873 39.5616 14.4873L32.0533 14.4873Z" fill="url(#paint0_linear_154_3172)"/>
<defs>
<linearGradient id="paint0_linear_154_3172" x1="6.42216" y1="1.20415" x2="45.5902" y2="11.6302" gradientUnits="userSpaceOnUse">
<stop stop-color="#AAC4F9"/>
<stop offset="1" stop-color="#3866DC"/>
</linearGradient>
</defs>
</svg>
