<svg width="24" height="24" viewBox="0 0 24 24" fill="none" xmlns="http://www.w3.org/2000/svg">
<path d="M2 12V18C2 18.5304 2.21071 19.0391 2.58579 19.4142C2.96086 19.7893 3.46957 20 4 20H20C20.5304 20 21.0391 19.7893 21.4142 19.4142C21.7893 19.0391 22 18.5304 22 18V12H16L14 15H10L8 12H2Z" fill="current"/>
<path d="M2 12L5.45 5.11C5.61558 4.77679 5.87083 4.49637 6.18704 4.30028C6.50326 4.10419 6.86792 4.0002 7.24 4H16.76C17.1321 4.0002 17.4967 4.10419 17.813 4.30028C18.1292 4.49637 18.3844 4.77679 18.55 5.11L22 12M2 12V18C2 18.5304 2.21071 19.0391 2.58579 19.4142C2.96086 19.7893 3.46957 20 4 20H20C20.5304 20 21.0391 19.7893 21.4142 19.4142C21.7893 19.0391 22 18.5304 22 18V12M2 12H8L10 15H14L16 12H22" stroke="current" stroke-width="2" stroke-linecap="round" stroke-linejoin="round"/>
</svg>
