<svg width="24" height="24" viewBox="0 0 24 24" fill="none" xmlns="http://www.w3.org/2000/svg">
<g clip-path="url(#clip0_916_5056)">
<path fill-rule="evenodd" clip-rule="evenodd" d="M5.83 5.106C5.99591 4.77399 6.25093 4.4947 6.56652 4.29937C6.88212 4.10404 7.24585 4.00038 7.617 4H16.381C16.7525 4.00001 17.1166 4.10349 17.4326 4.29884C17.7486 4.49419 18.0039 4.77369 18.17 5.106L21.682 12.13C21.8909 12.5469 21.9998 13.0067 22 13.473V19C22 19.5304 21.7893 20.0391 21.4142 20.4142C21.0391 20.7893 20.5304 21 20 21H4C3.46957 21 2.96086 20.7893 2.58579 20.4142C2.21071 20.0391 2 19.5304 2 19V13.472C2.00019 13.0065 2.10872 12.5473 2.317 12.131L5.83 5.106ZM16.381 6H7.618L4.12 13H7.5C7.89782 13 8.27936 13.158 8.56066 13.4393C8.84196 13.7206 9 14.1022 9 14.5V15.5C9 15.6326 9.05268 15.7598 9.14645 15.8536C9.24021 15.9473 9.36739 16 9.5 16H14.5C14.6326 16 14.7598 15.9473 14.8536 15.8536C14.9473 15.7598 15 15.6326 15 15.5V14.5C15 14.1022 15.158 13.7206 15.4393 13.4393C15.7206 13.158 16.1022 13 16.5 13H19.88L16.381 6Z" fill="current"/>
</g>
</svg>
