<svg width="24" height="24" viewBox="0 0 24 24" fill="none" xmlns="http://www.w3.org/2000/svg">
<g clip-path="url(#clip0_916_5055)">
<path d="M16.382 4C16.7259 4.00013 17.0639 4.08891 17.3634 4.25777C17.6629 4.42664 17.9139 4.66987 18.092 4.964L18.171 5.106L21.683 12.13C21.8564 12.4766 21.961 12.8536 21.991 13.24L22 13.472V19C22.0002 19.5046 21.8096 19.9906 21.4665 20.3605C21.1234 20.7305 20.6532 20.9572 20.15 20.995L20 21H4C3.49542 21.0002 3.00943 20.8096 2.63945 20.4665C2.26947 20.1234 2.04284 19.6532 2.005 19.15L2 19V13.472C1.9997 13.0847 2.07441 12.7009 2.22 12.342L2.317 12.13L5.829 5.106C5.98277 4.79806 6.21341 4.53501 6.49861 4.3423C6.78381 4.1496 7.11392 4.03376 7.457 4.006L7.618 4H16.382ZM8 14H4V19H20V14H16V14.5C16 14.8978 15.842 15.2794 15.5607 15.5607C15.2794 15.842 14.8978 16 14.5 16H9.5C9.10218 16 8.72065 15.842 8.43934 15.5607C8.15804 15.2794 8 14.8978 8 14.5V14ZM16.382 6H7.618L4.618 12H8.5C8.87288 12 9.23239 12.1389 9.50842 12.3896C9.78445 12.6403 9.9572 12.9848 9.993 13.356L10 13.5V14H14V13.5C14 13.1271 14.1389 12.7676 14.3896 12.4916C14.6403 12.2156 14.9848 12.0428 15.356 12.007L15.5 12H19.382L16.382 6Z" fill="current"/>
</g>
</svg>
