<svg width="700" height="700" viewBox="0 0 700 700" fill="none" xmlns="http://www.w3.org/2000/svg">
<path fill-rule="evenodd" clip-rule="evenodd" d="M560 399.668C560 474.502 499.335 535.168 424.5 535.168C401.354 535.168 372.054 527.164 342.725 511.832C325.03 502.581 307.324 490.664 290.952 476.227C246.725 437.226 212.236 379.842 214 307C214 226.5 275.666 171.5 350.5 171.5C420.658 171.5 462.541 208.854 480.274 275.321C481.415 279.594 482.455 283.988 483.396 288.5C505.5 293.5 560 324.833 560 399.668ZM276 306C276 265.131 309.131 232 350 232C390.869 232 424 265.131 424 306L422.5 333L431.5 332C470.989 332 503 364.012 503 403.5C503 442.988 470.989 475 431.5 475C329 461.5 268.167 354.167 276 306Z" fill="url(#paint0_linear_627_2000)"/>
<path d="M140 401.384C140 474.285 199.098 533.384 272 533.384C298.445 533.384 323.074 525.607 343.725 512.215C326.029 502.965 308.323 491.047 291.952 476.61C286.653 477.772 281.148 478.384 275.5 478.384C233.25 478.384 199 444.133 199 401.884C199 390.654 201.42 379.99 205.766 370.384C186 332.384 192.5 296 192.5 296C160.609 320.096 140 358.333 140 401.384Z" fill="url(#paint1_linear_627_2000)"/>
<path fill-rule="evenodd" clip-rule="evenodd" d="M560 399.668C560 474.502 499.335 535.168 424.5 535.168C401.354 535.168 372.054 527.164 342.725 511.832C325.03 502.581 307.324 490.664 290.952 476.227C246.725 437.226 212.236 379.842 214 307C214 226.5 275.666 171.5 350.5 171.5C420.658 171.5 462.541 208.854 480.274 275.321C481.415 279.594 482.455 283.988 483.396 288.5C505.5 293.5 560 324.833 560 399.668ZM276 306C276 265.131 309.131 232 350 232C390.869 232 424 265.131 424 306L422.5 333L431.5 332C470.989 332 503 364.012 503 403.5C503 442.988 470.989 475 431.5 475C329 461.5 268.167 354.167 276 306Z" fill="url(#paint2_linear_627_2000)" fill-opacity="0.5"/>
<defs>
<linearGradient id="paint0_linear_627_2000" x1="231" y1="266.5" x2="576.817" y2="402.663" gradientUnits="userSpaceOnUse">
<stop stop-color="#8BB3F5"/>
<stop offset="1" stop-color="#64E4F3"/>
</linearGradient>
<linearGradient id="paint1_linear_627_2000" x1="191.5" y1="296" x2="421.006" y2="423.69" gradientUnits="userSpaceOnUse">
<stop offset="0.130208" stop-color="#7291ED"/>
<stop offset="1" stop-color="#6ED7EF"/>
</linearGradient>
<linearGradient id="paint2_linear_627_2000" x1="487" y1="221" x2="512.423" y2="502.586" gradientUnits="userSpaceOnUse">
<stop stop-color="white" stop-opacity="0.59"/>
<stop offset="1" stop-color="white" stop-opacity="0.01"/>
</linearGradient>
</defs>
</svg>
